# xmcd CD database file
#
# Track frame offsets:
#	187
#	20592
#	39049
#	59369
#
# Disc length: 1034 seconds
#
# Revision: 0
# Processed by: cddbd v1.5PL3 Copyright (c) Steve Scherf et al.
# Submitted via: CDex 1.50beta9
#
DISCID=27040804
DTITLE=シャ乱Ｑ - 涙の影
DYEAR=1996
DGENRE=J-POP
TTITLE0=涙の影
TTITLE1=Moving
TTITLE2=涙の影　カラオケ
TTITLE3=Moving　カラオケ
EXTD=YEAR: 1996
EXTT0=
EXTT1=
EXTT2=
EXTT3=
PLAYORDER=
